<svg xmlns="http://www.w3.org/2000/svg" width="74" height="74" viewBox="0 0 74 74">
  <g id="Group_4181" data-name="Group 4181" transform="translate(-249 -219)">
    <g id="Group_4175" data-name="Group 4175" transform="translate(-5 32)">
      <circle id="Ellipse_22" data-name="Ellipse 22" cx="37" cy="37" r="37" transform="translate(254 187)" fill="#e75755"/>
      <g id="Icon_warning" data-name="Icon / warning" transform="translate(269 200)">
        <path id="Path" d="M22.383,0a2.514,2.514,0,0,0-2.059,1.222L.332,34.928a2.381,2.381,0,0,0,.006,2.436,2.518,2.518,0,0,0,2.17,1.214H42.491a2.518,2.518,0,0,0,2.17-1.214,2.381,2.381,0,0,0,.006-2.436L24.66,1.224A2.52,2.52,0,0,0,22.383,0Z" transform="translate(0 0)" fill="#fff"/>
        <g id="Group_117" data-name="Group 117" transform="translate(19.688 11.438)">
          <path id="Shape" d="M3.452,2.175A1.989,1.989,0,0,1,1.726,4.348,1.989,1.989,0,0,1,0,2.175,1.989,1.989,0,0,1,1.726,0,1.99,1.99,0,0,1,3.452,2.175Z" transform="translate(0.882 16.234)" fill="#d2201e"/>
          <path id="Path-2" data-name="Path" d="M5.207,2.173a2.265,2.265,0,0,0-.57-1.26A2.714,2.714,0,0,0,.623.864,2.276,2.276,0,0,0,.009,2.173a2.1,2.1,0,0,0,0,.392L1.085,13.21a1.246,1.246,0,0,0,.44.816,1.656,1.656,0,0,0,1.083.388,1.673,1.673,0,0,0,1-.318,1.267,1.267,0,0,0,.527-.886L5.207,2.565A2.072,2.072,0,0,0,5.207,2.173Z" transform="translate(0 0)" fill="#d2201e"/>
        </g>
      </g>
    </g>
  </g>
</svg>
